<svg width="617" height="617" viewBox="0 0 617 617" fill="none" xmlns="http://www.w3.org/2000/svg">
<g style="mix-blend-mode:luminosity" filter="url(#filter0_f)">
<circle cx="308.5" cy="308.5" r="158.5" fill="#F2F9EC"/>
<circle cx="308.5" cy="308.5" r="158.5" fill="url(#paint0_radial)"/>
<circle cx="308.5" cy="308.5" r="158.5" fill="url(#paint1_radial)"/>
</g>
<path d="M436.861 354.26H460V263.57C460 263.543 460 263.543 460 263.516C460 263.353 460 263.164 460 263.001C460 262.893 459.973 262.811 459.973 262.703C459.973 262.622 459.973 262.513 459.946 262.432C459.946 262.324 459.919 262.188 459.891 262.08C459.891 261.998 459.864 261.944 459.864 261.863C459.837 261.727 459.837 261.619 459.81 261.484C459.81 261.429 459.783 261.375 459.783 261.294C459.756 261.158 459.729 261.05 459.702 260.915C459.674 260.86 459.674 260.806 459.647 260.725C459.62 260.617 459.593 260.481 459.539 260.373C459.512 260.318 459.512 260.237 459.485 260.183C459.457 260.075 459.403 259.966 459.376 259.858C459.349 259.777 459.322 259.722 459.295 259.641C459.268 259.533 459.213 259.451 459.186 259.343C459.159 259.262 459.132 259.18 459.078 259.099C459.051 259.018 458.996 258.937 458.969 258.855C458.942 258.774 458.888 258.666 458.834 258.584C458.806 258.503 458.752 258.449 458.725 258.368C458.671 258.259 458.617 258.178 458.562 258.07C458.535 258.015 458.481 257.934 458.454 257.88C458.4 257.771 458.345 257.663 458.291 257.582C458.264 257.528 458.21 257.473 458.183 257.419C458.128 257.311 458.047 257.202 457.993 257.121C457.965 257.067 457.911 257.013 457.884 256.959C457.83 256.85 457.749 256.769 457.667 256.661C457.613 256.606 457.559 256.525 457.532 256.471C457.477 256.39 457.396 256.308 457.342 256.227C457.26 256.146 457.206 256.064 457.125 255.983C457.07 255.929 457.016 255.875 456.962 255.793C456.718 255.522 456.419 255.252 456.148 254.981C456.094 254.926 456.04 254.872 455.958 254.818C455.877 254.737 455.795 254.683 455.714 254.601C455.633 254.547 455.551 254.466 455.47 254.412C455.416 254.357 455.334 254.303 455.28 254.276C455.171 254.195 455.09 254.141 454.982 254.059C454.927 254.032 454.873 253.978 454.819 253.951C454.71 253.897 454.629 253.815 454.52 253.761C454.466 253.734 454.412 253.68 454.358 253.653C454.249 253.599 454.168 253.544 454.059 253.49C454.005 253.463 453.924 253.409 453.869 253.382C453.761 253.328 453.68 253.274 453.571 253.219C453.49 253.192 453.435 253.138 453.354 253.111C453.273 253.057 453.164 253.03 453.083 253.003C453.001 252.975 452.92 252.921 452.839 252.894C452.757 252.867 452.676 252.84 452.594 252.813C452.486 252.786 452.405 252.732 452.296 252.704C452.215 252.677 452.161 252.65 452.079 252.623C451.971 252.596 451.862 252.542 451.754 252.515C451.699 252.488 451.618 252.488 451.564 252.461C451.455 252.434 451.32 252.406 451.211 252.352C451.157 252.325 451.103 252.325 451.048 252.325C450.913 252.298 450.804 252.271 450.669 252.244C450.614 252.244 450.56 252.217 450.479 252.217C450.343 252.19 450.235 252.163 450.099 252.163C450.018 252.163 449.963 252.135 449.882 252.135C449.773 252.108 449.638 252.108 449.529 252.081C449.448 252.081 449.339 252.054 449.258 252.054C449.149 252.054 449.068 252.027 448.96 252.027C448.797 252.027 448.607 252.027 448.444 252.027C448.417 252.027 448.417 252.027 448.39 252.027C448.363 252.027 448.363 252.027 448.336 252.027C448.173 252.027 447.983 252.027 447.82 252.027C447.712 252.027 447.63 252.054 447.522 252.054C447.441 252.054 447.332 252.054 447.251 252.081C447.142 252.081 447.006 252.108 446.898 252.135C446.817 252.135 446.762 252.163 446.681 252.163C446.545 252.19 446.437 252.19 446.301 252.217C446.247 252.217 446.193 252.244 446.111 252.244C445.976 252.271 445.867 252.298 445.732 252.325C445.677 252.352 445.623 252.352 445.542 252.379C445.433 252.406 445.298 252.434 445.189 252.488C445.135 252.515 445.053 252.515 444.999 252.542C444.891 252.569 444.782 252.623 444.674 252.65C444.592 252.677 444.538 252.704 444.457 252.732C444.348 252.759 444.267 252.813 444.158 252.84C444.077 252.867 443.995 252.894 443.914 252.948C443.833 252.975 443.751 253.03 443.67 253.057C443.589 253.084 443.48 253.138 443.399 253.192C443.317 253.219 443.263 253.274 443.182 253.301C443.073 253.355 442.992 253.409 442.883 253.463C442.829 253.49 442.748 253.544 442.693 253.572C442.585 253.626 442.476 253.68 442.395 253.761C442.341 253.788 442.286 253.843 442.232 253.87C442.124 253.924 442.015 254.005 441.934 254.059C441.88 254.086 441.825 254.141 441.771 254.168C441.663 254.249 441.581 254.303 441.473 254.384C441.418 254.439 441.337 254.493 441.283 254.52C441.201 254.574 441.12 254.655 441.039 254.71C440.957 254.791 440.876 254.845 440.795 254.926C440.74 254.981 440.686 255.035 440.605 255.089C440.469 255.224 440.333 255.36 440.171 255.495L365.763 329.793L354.479 316.407L366.577 304.322C371.134 299.77 374.091 294.134 375.149 287.956C376.153 282.239 375.474 276.359 373.223 270.913C370.971 265.467 367.282 260.833 362.535 257.5C357.408 253.897 351.278 252 344.849 252H265.559C259.157 252 253.976 257.175 253.976 263.57C253.976 269.965 259.157 275.14 265.559 275.14H344.849C349.406 275.14 351.251 278.391 351.82 279.8C352.39 281.209 353.394 284.813 350.193 288.011L330.58 307.601C326.321 311.855 326.05 318.629 329.929 323.235L356.106 354.233C358.385 356.943 361.667 358.352 364.949 358.352C364.976 358.352 365.031 358.352 365.058 358.352C365.085 358.352 365.112 358.352 365.139 358.352C368.096 358.352 371.053 357.214 373.331 354.965L436.861 291.506V354.26Z" fill="#1B1A1A"/>
<path d="M213.198 252H143.324H143V257.774V263.549V269.35V275.125H143.324H185.373C175.098 285.426 164.849 295.701 154.573 306.003C151.951 308.632 149.706 311.858 148.111 315.437C146.515 319.015 145.704 322.919 145.569 326.796C145.434 333.113 147.218 339.321 150.626 344.553C152.329 347.155 154.438 349.541 156.872 351.547C159.333 353.553 162.118 355.18 165.092 356.319C168.689 357.701 172.502 358.352 176.179 358.352H268.037H268.361V352.577V346.803V341.029V335.227H268.037H176.206C175.125 335.227 174.205 335.037 173.394 334.712C172.718 334.441 172.069 334.088 171.501 333.628C170.933 333.167 170.392 332.57 169.96 331.893C169.094 330.537 168.608 328.883 168.635 327.365C168.662 327.257 168.662 327.148 168.662 327.013C168.662 326.959 168.662 326.904 168.662 326.85L168.689 326.687C168.716 326.579 168.716 326.471 168.716 326.362C168.743 326.254 168.77 326.145 168.797 326.037C168.824 325.82 168.932 325.603 168.959 325.386C168.986 325.278 169.04 325.169 169.067 325.061C169.121 324.952 169.121 324.844 169.203 324.736C169.581 323.922 170.095 323.136 170.852 322.35C187.672 305.488 204.518 288.598 221.337 271.736C223.42 269.648 224.718 266.748 224.718 263.549C224.745 257.178 219.58 252 213.198 252Z" fill="#1B1A1A"/>
<path d="M215 305.175C215 334.5 238.85 358.35 268.175 358.35C297.5 358.35 321.35 334.5 321.35 305.175C321.323 275.85 297.473 252 268.175 252C238.85 252 215 275.85 215 305.175Z" fill="url(#paint2_radial)"/>
<defs>
<filter id="filter0_f" x="0" y="0" width="617" height="617" filterUnits="userSpaceOnUse" color-interpolation-filters="sRGB">
<feFlood flood-opacity="0" result="BackgroundImageFix"/>
<feBlend mode="normal" in="SourceGraphic" in2="BackgroundImageFix" result="shape"/>
<feGaussianBlur stdDeviation="75" result="effect1_foregroundBlur"/>
</filter>
<radialGradient id="paint0_radial" cx="0" cy="0" r="1" gradientUnits="userSpaceOnUse" gradientTransform="translate(308.337 367.334) rotate(90) scale(180.453 268.633)">
<stop stop-color="#DA6800"/>
<stop offset="1" stop-color="#512FD8" stop-opacity="0"/>
</radialGradient>
<radialGradient id="paint1_radial" cx="0" cy="0" r="1" gradientUnits="userSpaceOnUse" gradientTransform="translate(308.5 308.5) rotate(-90.0425) scale(220.188 719.805)">
<stop stop-color="#F2F9EC"/>
<stop offset="1" stop-opacity="0"/>
</radialGradient>
<radialGradient id="paint2_radial" cx="0" cy="0" r="1" gradientUnits="userSpaceOnUse" gradientTransform="translate(284.084 277.904) scale(80.0716)">
<stop offset="0.00520833" stop-color="white"/>
<stop offset="0.0729167" stop-color="#F9F5DC"/>
<stop offset="0.166667" stop-color="#FBF7E8"/>
<stop offset="0.34375" stop-color="#CAD6E0"/>
<stop offset="0.458333" stop-color="#ABC0DB"/>
<stop offset="0.640625" stop-color="#8A9BD7"/>
<stop offset="0.828125" stop-color="#8382D7"/>
<stop offset="1" stop-color="#9C87DB"/>
</radialGradient>
</defs>
</svg>
